<svg xmlns="http://www.w3.org/2000/svg" viewBox="0 0 24 24" fill="none">
  <!-- Anki logo - stylized brain/neural network icon -->
  <path d="M12 2C6.48 2 2 6.48 2 12s4.48 10 10 10 10-4.48 10-10S17.52 2 12 2zm0 18c-4.41 0-8-3.59-8-8s3.59-8 8-8 8 3.59 8 8-3.59 8-8 8z" fill="#34495e"/>
  <circle cx="9" cy="9" r="1.5" fill="#3498db"/>
  <circle cx="15" cy="9" r="1.5" fill="#3498db"/>
  <circle cx="9" cy="15" r="1.5" fill="#3498db"/>
  <circle cx="15" cy="15" r="1.5" fill="#3498db"/>
  <circle cx="12" cy="12" r="2" fill="#e74c3c"/>
  <path d="M9 9l3 3M15 9l-3 3M9 15l3-3M15 15l-3-3" stroke="#34495e" stroke-width="1.5" stroke-linecap="round"/>
</svg>
